<mxfile host="app.diagrams.net" modified="2020-07-11T16:23:49.279Z" agent="5.0 (Macintosh; Intel Mac OS X 10_15_5) AppleWebKit/537.36 (KHTML, like Gecko) Chrome/83.0.4103.116 Safari/537.36" etag="AD7bJLFGI8f7hP5TGPNw" version="13.4.0" type="github">
  <diagram id="xIeMt8B4BZafYRGNsmS7" name="Page-1">
    <mxGraphModel dx="2066" dy="1105" grid="1" gridSize="10" guides="1" tooltips="1" connect="1" arrows="1" fold="1" page="1" pageScale="1" pageWidth="827" pageHeight="1169" math="0" shadow="0">
      <root>
        <mxCell id="0" />
        <mxCell id="1" parent="0" />
        <mxCell id="gIB-E6HbOeR175P0wQPo-2" style="edgeStyle=orthogonalEdgeStyle;rounded=0;orthogonalLoop=1;jettySize=auto;html=1;shape=flexArrow;fillColor=#dae8fc;strokeColor=#6c8ebf;" edge="1" parent="1" source="gIB-E6HbOeR175P0wQPo-1">
          <mxGeometry relative="1" as="geometry">
            <mxPoint x="258.5" y="320" as="targetPoint" />
          </mxGeometry>
        </mxCell>
        <mxCell id="gIB-E6HbOeR175P0wQPo-1" value="" style="shape=image;verticalLabelPosition=bottom;labelBackgroundColor=#ffffff;verticalAlign=top;aspect=fixed;imageAspect=0;image=data:image/png,iVBORw0KGgoAAAANSUhEUgAAASkAAAAuCAYAAAB06++OAAAgAElEQVR4Ae2dB5xURb7v2fvufTe8+3bv23v3vbd3ddeAYsK45gSCoiBBUQmigAiiiIii5BxEcs45DpLTEIc8hCHMDDNMzjl1T09P5z6nv+/zr9M1MyAIKO6679J8/tT06ROq/vWvX/1T1anHzc9NDtzkwE0O/II5UG/2nNnMnDWDyVMnM2361ItoyrQp3KSbPLgpAzdl4C8hA4JBEyZ+W4M5GzZuUNBZr169etx73z00uLfB9+jue+7il0d3cvc9d3JPg7sU/aXrd+lz699zD0JXqoc+v0GDBghd6bza43LOtZz3S+ybm3Wq7ccbywstR1cqr/e5+j7Xe93Peb5g0B31b+ehRx5EcOm+B+4lhEm9en9Xj/TM9F+wsnezajc5cJMD/9U4INbdo489opqtNKnsnCz1xTCD/FKJUAiLgpiGHzNgEAqahExT1V0QV5MZMlQ7pLx+AjNUl/Q9/Jghf201QiFCoRCBEIpqqqerGf5dH5cLpa4hE0Wm8NoIYBiGoqARQChghBQFDQOLvASCHoJBvyKvESQgN8UgFJK/DUWEggjp9urnBkNgkZ9gyA/CLqlDuH5yTMgIeRXVXm+1D9NASB//uUpdH81g/ZxQSNpphNsg/aLrYvUHIS9CcryGh8KrMD//cqXuryuVl/av9T1oSF1rKWBAXTIML0K17ag9t+51tb/r+15cmkYAIS1vISOIorA8+kMmQr5QSJH0h6nk1UPI9CDyqmT2Z8QIaYM/4FPjec68OdS/686/fZASoDINQ4FXrfBaACUN/nGAC4ZZlzRw+zBMH4KJFpmqE/0hEKo9rv+2ftfHFZgqoLoySFn11c82MUwh67l6sApAiTCZZkCRPxREKGQGFOk26+cGTFAU8hEI+eqApFU/OSYUND2Kaq+3fscIIqSP/1ylDAhrUFgTj36OHhy6Hfp4DV9MaxDVHv/563r5Z+n+ulKp66X7V38XOa2loAl1yVQyJzJw+fNrr9W/X74MmSIjAjRhPtcBKZm0RK6E/pogJW0MBP0KmMRX/jcIUgJGMqsHlMagWmIpBRihUJ1OtDrp+kHqSsJzcadj+hDSne0LgZAGBS1UenBpzSlkiCYlFXZByA2i1Qg4gCJDyhqtRzSG0EUUMgyEECUq/EwRKOGJJXwWaGnwCoQC1CU9qP0hH0KG6VGk6xcwTYSCZkCRPr92cFzMhxt9XPPTb3oQ8oZJg6gGKV3PWv5eDM43ul7Xfr8rgZM+rvmnAUl/13Knz7u41BpObT309ZeW+n6XLzW/NJ8xvSgyvGB48YRQpMZSWPZkktTyVPv8y9//RvwulpCMW/mIufc3B1IyEBVIGT5CPhc+j4nHFcTl9eINWKrtT2OUFharE8yQlCIIF3fK9YKUBhUFUgJUfgd+VznOqnKqHGXYqhxh8iNApSmMRfpyBVAhv5+gz4/f48XuceMNidahZ8ibIHVpX/1lv18MLpYWXPeYliMNLvq7lru651p/y0T1s4NU0I3prcLmDf3XBKm6Jpj8fb1CU/d6TCcYVYQcaZRdOMj2ncdZsTqSrUcSybCJiiKah/ZXWOX1Pc/SLOqqz3I/ceDIMUw/GD7l0pHZRnxDIkDaNNQzlNjvlg1vKr+PaFYh0Zp8+VCdRWLMYbauWcy3k2cwdMRYPhs2iXFzV3HkVCJOXwifaSig0j4l0bhCMtv5izBLEkmISyJq3yGW74khOsOGq9oy4dymF6/pxx+mUCCEGbC0N9UMBXemwnn13fApjdQQn5bMXkGZWUW7szS1sOuqRsuT2e36+KkH4bWVAdOtfGJas5N6WOy3HISmP4S0ST6Wz9CvTOFLzdyfs44/fO/vg4wFVFdqvwVWQcONkPKtmW7FfmmjNFXcCFpzDJpBhGrlU4OdLi//HH2dyKfl97NcuxgV4C/FlhHN+UPrWL39BHuOp5FZWk21dL7qb3FNWJPgD7f98s++3mv+KprUTwONWiewAoswSBkl5zm5fRF9+o7mrXYf03/CIk6kln0PoOSa62PSxSBlAZQAnyUYpt+Nw1ZCma0Cp9tdZ4azZsKrgpQrm7zEgyye8S1tX32Bu+59iN/dcge/ve9pXu3wEcvX7aCsSpzglm+gLkgp09BXSHniQebOXsDnvb+k15g5rD+SgN3mVGakAJQAVUA504MKoALVIQwhtzhBw456TwifI4CvyqaASUBKBFmBlOHDCBp43V7sTp9F1X6qfSGlhl8/T69deAWkzJAPU57lNPE6PQTcfgx/QGmPQYdJoNLE7ZUJSIaQ3FsA+pdu7l2JB7UgFQi6CPocBLyVVFa5cTg9uERj/jlByrQRcBWQc24XEXOG0fXzsfQbNZcDMYlUeEXuLbn+hYLUDyOzHvgaofX3y5Ui1LW+lesFDatz9cDQmkyoNIbY7TPp/flwXm/zPr3HLeVIqkNF9tS5Ak5hjeqydbpKlEI7LfWMFTJLMYLFlGYnELlhKZNmLyPy4ClKqx24ZJYxRDsR2138VHXJ8lOFzGr8PjvBjCgOLRtB566f8NgTL/LnFu/QrvcAevUbyZhJ8zlw/AyVXgukREOTjwAVhgPMKkKVF4jdOov3PuxH8ze70mdaBFtji3G4nCq6p2ch0T6EvDlBHNF+KiK9VB714c0zFKljO73kHCnHmy8ni6MygGgqpidEQW6QY8fKWbetlI07K9h9uILEtCDlFeWKx5fj6Y04JuAk5LoQwB7lo3ifA2dsQNXRkxXEftBHxQ4vZXFO/OWaP2IOWRrHjajDT7tH2EQLO6a/b+6FQSnsGBf5kuhcyLRhGOW4K1KJ3hfBjHlrWbFuF4lZxbgVUFiBEy2PVyq1z+n7bbDqJT498XnqyDVmGUFPPq6MKHYsGkyLd3rxcpvuTFt3kPQqswakdOBEa3Tfv/+VQPj6j2sZFtm/ik/qFwxSYpJUJeJM3sXmbQeZOXcVK/aeJ6lczDJl8GGIeRZOR9AAV5exV+5Mi6kapESAAkFxkpcT8BeSGHOAL3t25PFGrzNq4hyySgquClIBkYqQC3d1GaWnvmN2vzdp2qwN73X5mKkrN3EirZC8UjdZRU5sbnF0y4AzwykGqkkWSAUrMUvOsmV6P5q+3omOXT9n4d7zpFSbBNX5VvhdwrcCUGqwJweIX5bOgXGnSF6ajy3WhT3OTe46DwfHX2D3/KM4EwMYAbfyhJneEGV5lURHV7B82UnGTDnO6MnRTJ0fzcbIXJJTklV4+HI8rcvfH/u31NlwhRSwnpmTys7xUWRuLaQ6PkDlaRd5Sws4OSaG6PVn8WRLuMH6/K2DFKZdgVRlUQKzJ/bnqUZtePeDLzh6NumqICVafo2mf8XJ98ogJbKNO5m0I8vp2Xccz77Sic/GL2H/hTLcXp+lsZqS6hOoMTt/qH9/qmxcI0hpgAqjvuGHoAsC1RDyqGiUFg7tvLC8BJYN7Q1HndwSpld5Nx6VyyP5PJgeULa3CFg4mUjdTO6g72LdXSAnaEpY3IcZKAfDpiJq1nU+5Zsqd/hIyy4mo7SSKoVRlmmmI2SExAyqCqszde8v0QMrgiBP07Z/jbCLFkaIkCFROHlWLgQzSDu+k97tmvL3DV6g96h5pJVWqKie5oe0qlppMS4w3SDXSxlygK+UhMjVjPigNQ+80Yce41dxMCENZ51qyZ/CP0kn8JkB5ZsS/xTeFEIVZ8k7HsW0Lz7it8368ubAFRw9n4ZDFAphpRlSETl/0PJPybGqM37S5pRyYmAcxYtcOE74cZ71U7zETeLwIjZO2o39rLRPoqWGGvipRwpZtiOP+Rsz2Lgjhc2R6Wxam8LmiFR2HMshudDAFQjhDlq5XP6gNr10PUQxk1yssFNDmFPnT/kqkVDhtfpJpXMEVR6UAld/CNsuLzkTyzk65DSlER6qTvupPOKjcJqL9GFFHFkWjTsjiCn/rtukv/7ZXQ9KHV3UGpK0wadSVUwCwVrQtFpm/a98QGEWyPlylkRkXcGA5WeUI0YBotX4ck6xcNTH/Lbhq7zSvi9RcclUXsI7yZ8KKZny1kxO4ie16JI6yFiTMRf+CN8lgidnqTPVeBY5zaMy4yCrJgyi80sP06TPTGbuzSSz3EGVPF+igEE3PtPSWrVGJZaU+DJr3Atirptu5atVcqt8WgKQWoPUPrUr98FPAynDjVldjqssl6LiYkrLyigqKSQ9K43ElAxFybkl5JZX4fAFEJAKKkfoxSBl+BzYK0oVVdrtVFVW4raVU5afQ3JaDvEJaSSmFZJVYMfhrMAfFGB0EApWYK8oJjM9ieS4aDKTTpOaVUR6Tgm5drcCKdF8ZFa5FKT8VVU4SksoLy+ntLSU4uI8sjJTSE5KJyU5g+ScPArsDqoNyRFBmYpiLgpIVZTlkZe8i4STEexcPoXOrz3Obx5qRvvPxrAx6hAnU9KIi08kOTmNrGI7ZS6JQEqdvRjuCioKM6hIPk7K0W1snDqM3q2epX7znrQbOIdFW3dz+EIGqan5pKTkUVrlqgEpA8sxb4FUKv7M/exfOpuh77flwQ6j6TM7ivicEqrDACXmpqQOXApSmfPLOTX4vAKmqhi/Mp9KlrpJGlHC1qn7cMYLWItD2kvFBR8HI84we10Ku2J8FBQblJQbnD3uUSC1Ynscx5OclDp8eGWw1Diwwz45K8ZAKCgmsEHQ66O6spKiAhuF+RUUFJVSXFpBsa0KW7UPvz+gzFnRbFUOmNwzEMK2x0veZBvHh5+j7DuPAlbHMT+FM1xkjijl2IoTiPknNbgaSNVNQ6n7twae6ykvB1ICPNqdIX3grnSQnZ1NSkoKSUlJJCcnk5yeSnZ+rurf6qAlYx6ZfEJ+XE4bBWkHyUzYxbnIJYzt3VaB1FMtujMrYjMHz6cSF59M/PlUMnJslNqDBANOTMOF15BosAisT/kXSwoLsJeXYrc7FNny0ijOSCApKYXk5FQS8xxklPmpcksKirDPjRGsAiOHYEkMRyPmM7hLax7oOJxuk7dyMindAimZqK8AUiroEgqoYI1huBRI1UYjLQ3uZwYpy3FN0Al+B6XnjrB70TQmz57H1HkLmDxzCgOHD6JXj2507/IeH30+mrlLt3IoIZvyYKhGiBGnrJC/CGf6CaI2bmTt3HnMXL6RJRt2s3ndImZMHMaXvbvxXrvXaf3RaAZO+45NRxLIsAvaJeO3neT4riVMHNKVjzq9xSed2/Ne3zl89c0G1u87Sb5TIF/qK9nTlu0t0Qu/PZP0w3vYPn8aE+YvZfqytSxdPI9RIwbT98NOfPzuW3TrPZaFq/dzJNNBgVxs2pWJ5yo+x54NM/jy4/Z0aP0Cb7zyKg3vuJN/+M3/5a4HH6PNO2/yRru2tOjYj/d6jWXo3O+IznJAoAKCNpxpp9i7fBpDe71H19aNaf5sQxr+8V/51e2P8ocnmvFyC7n+fVq2+5Qvhkxjy74oKjwiQCG8omKLcEicz8jEcXY93w4cTIdXm/PS5zOZGJlEYZldaYHaVyeC55VQY1hLEU0qe4Gd40NTEWASjcQZF6BkmZvUEXlsm7aX6vMWSAWDPvITA2xbdZ5Zq+M5Eu/H6w4R8IVIivWzKSKZOZvPcDjVjcMh2c+ifAlCWtqfzNBKWxZD2x/Caze5cCHA9l3lLIsoZO6yTOavyGPxmiLW7C0gOjmgJjTxuaiUDolgStUFpPb6yJlSQfTIs5Rt9ChgdRz3UzTLTdpIG0dXncSTI5qUBBhEI7F8cNcDOD/uXAuMtSah88iUvAQrcOTFc2DLUiaMG03PD7vyfucudO3ajY7dv2bw2NnM23mGmCIDb7CcoOnAtCcRf2Qd00Z8wccdmtOxxcs0fuR+/vu//jv/9ofbafL6i7zRoSWvd/yatz8YSp8xC9ganUaFq9oCGcm3Czoxis+Tc2AtSxcsYcn8xSxbt4MV6yNZPG86Q77+nC5dPuCDDz6k+9CZzN8STVpeKU4xH2QiFStJNDlPBqWnIlg4uD33thxIs54zWHcklmLhbSigxpXIl0VWZrq0PyhRZ6mHyv1TQoArhKJLQf1aeH7dmpTMUkIY1YRcZcRHrmfQe2348/ONeKpxE15t9RrN27zOqy+9yFOPPsTdj7zMa217MG7+Go4m5eHxiWYjQlgLUjmndjJtxAjebd6C51t25M2un/H5x53o3KEFjZ99mAfvuZXfPdGW17uPYPqqSGJzq8FzHlvOfnaumUSPds/y1AP1aXDLr6l326vc8uT79Bk+mbOZZWrpyKUgVVmQyK4ls+n9xqs83PhVGr3Rnvc7taP9O2/Q8sUneehP/85v6r9Am45fMnHtPmIKxQdVpqgs8xir5w2jfavnePSef+fBO+/iT7/5N371D//MP/+fW3ngsQdp8OC91H+8Dc+93oNeY+cTlVQChoBcJWXxh1k7ZSjvNX+OVx6rz2N3/pY//NOvqPfrO6n3x4e5496HueehJ6j/8Cu81rYni9auo9jpUqq4AJWYy8osdcSTsGUyfbt24+2mzXh3/DpWnrXjCPuwtLovAuRR6GHp9wJSWfNtRA9JoWSJm7qaVMqIXLZO3UNVnGgzoskEsWcGid5VyKKNqWyMKiE+oYzY+BIO7StVILU6Ko0T2UHcHgOP18Rlr6KsoIjsEjslTi8+n8ykARWZy7xQRsSGHCZMOcaQsUcZNPowg8edYMg3Jxk17wgR+4sQzdsuqqtKarVAyvSZ2PZ6yZ5cXgtS5/xYIOUidUQFR0STyg5iKF/c1UFKy/G1DJIfPuf7ICUDmEA5lUVJHNmxkq8/epsXn32KB+65i/vue4C7776H/2zwDE1ad6HPlDVsjyumylOEYVZh2C5wbOcivvjgLV5oeCuP1/8j9/zuX6n33/6JX/33f+G2+26hwcN38KeHW9LwuQ689clIlu+MIa+0xHIzGOKCcRPMOsXeuSPo0rEzr73UjDfe/YhuvQfQo0sHWjZrxAMNH+LBBx/mz62702/Sco6dTcTukRnBi6lMwkLwZeFP3cPueV8pkGr4xhCmf7eLIpm0w5P/5UBKLRPzOygrSCcxIYHoY8c4ci6FjBInLq9PrXTQ5vEP89YyAa8DpLSaZl1IsAJ8xaRsW0j/Vo9T73eP8Pe3Pc0LHbozYMYStq2ewYo5oxjcqxsdX2tEkw/GMnLxQc5lFWAL+4oUULlTsJ2KYNmg7nR67Bbq3fkif3ixI+16DeTrCXNZMGsii+dNYdScpXyzcBWrdh0lscgJQTs+ew5ZSYfZv2Mpmyf34tseTWjw7If85yPv0mHgPKLSZO2WtZZLZ8ziz8csiePovG/o9dw9CtR+9WRnOn0+iMnL1rF71RhmDHuPjq+1oMXTz9G072Jm7MmnoKRAzdCGI4us+IPsXj+BdQsHMXHQF7zd5Bn+8e7naNquN+Nnz2PRug2sXLONdRt3E3noNFkl1QSUIzqAUVlE0skD7N8wm+8WjOLbPp1o+9Sd/O6Fd2jUfSiDxs9l7qodrF61nsjIKC6kJCvnpO5UzBIwS8FxjlPrxvBSi/d54oW2fDp/I7tzPRhBGdhiXkpuk+QMWSaQaDeilUiULHV5IftGniZ9RQX2s1VUn/dSusrNuTGJ7Jy1m+rzbuXbEVgL2EzyzhcQuaeEhUvO8e28dItmn2Lp+myiY8UkNfFUmWRnBYk85Gb9znLWH04nJseP4TKUw748K8jebfmMnh7H2JnnWf7dWbZHZbNnTzpbtiSwYttZdkbnkJhdgk3SDYJ+lR4hbkvDE1L+p7NT04kae4yy7VVUJwSoOOEnZ4mDY6MSObw2Gm+BCJbM8N4aTepqpt+1DJIfPscaFzU+tVA1krsXKj1F+r75fD1gJM+9+CrPtHiXD/uNZsaUb5n4zSgGDxzKyGGjGLl0PZtOJ1NcWmC5MbxllGTFcW7/arYsGceyiX3p3e45ftOgMQ2ff4few8YyefEqlixby7r129iy7wRx6cVUejyWJuWvVEGZYPo+zsz+nDdee5e7//gI9R5swbOdBjBszChmzJvD3LlzmTVrFiNnrWH++ijikjJxivNThEQteZKJtYRQ4X5OrR1M4xaf8ujz79N/+V5O2UVrMvCF14QKf+RvoZDpgFA1pi2dpP0RjBw0nq4de9J5yCxWH0rG5nTiU8u3rGU4cq2eMHR5Kb9/PEiJ0zoMUkPaPkO93z+mGPnhsAkcSMoFbyF+Wxon92xlSO8Pub3pxzTtNo51ew9RqmZKCTcFwZ2CK24LK4b05J0H/zf1/vgMf3rpPQZPWahMRGdFPobXTqbDz+nsYuLyKsmwB8Armo2E4csUM82CaBK2TeP93rN4sPEndB62mAPplmkkQFUXpELlicQsncJnjR6g3h0t+H2jnoxfsIrkUqeqT3nKHhZPnkqn11vxm+b9+XhGFAnJCfjEGekrhkApOBOgOpEL0VF89Pbr/OnPLfhy7AKS8ouUzR4IgpDLBIeE8WWtnajBvkpCHhsKLG1JxGxdxoD3W/Dke1/Re9paos/nUuIK4fWYiqTeYkpokAoZJQQDBYRKj3NwyUCeavw2zzZpx+C1+4m2WZnm1gi1QEo6Xtt6In/utCC2fT6y1zhUKc5md2ZQOaZLV7k4vzVROaANQQesXKpAhUl8fIB1G9KZuCCTyYuzFUBFHnZxKqGIC9lOzp+3s2f3BZZ+l82SiCwiDqRwOjdAsDqIz+Hj/Ck/y+fHMGj8CZZvriApS1YFhKiuNCktMojLCRCb7SfX5sbuD6lF1sovJS6CYEiZpeWbvGSvK1aAJfV2JQeo2O6ldI2H9MNZ+IpFy5eJ6eogJb4oTZcOiuv7fnmQCqaLBtKPlm068OQzTeg1aAKHY7NwO23YygpJSUrl9KmzbDmbxrFcOxWVpSoghFEpM4OV5OvNw5VzkkXffMb9z77Fm10GsOdULOWBEL5ACK8/pEw0l2E5vUWrwRRNykVdkLr99w9Q74HX6DBgJjv27ia3uICqqioqKytJKPBwPKWUvJJKC6RkZhLfmCGTYQnYokncNo7mbftx/5Pt+WTWRo6VGXhDAUUiX8Kv74FUaRI7F4yl6fOv8w9/9z/4n4+3YtiCrRSWl/0lQaocvEVkbJ3N2A5PU+/hTjRs3o9xqw+TKD4js1BFCIzs3eyY8TH3Nv6AB5p+yJg1O0lwmvhNl8okpjqWQGwEi4f1442H76Tenz/gxd4L2BgdS7Y4NcIfGWqSPOiorsajIkUSVhdhlGibH0r2kb93PB99PolnXv5AgdTeJJe6WqIpNT6pQD5meQKnl0zhq1cepd4zH/NM95msPhBLrswkRhZUxBC/aykje7zO3z3fk7ZfLyU6IUc5pAUAlKYSSIJAEtkxUXzduQ23vvA+X05eT6atmGqVcWlVXLxiIjzBYFCR7EhgqBSGEgVUaTtWMrbTazTs+g2fLjzIiYwihH3Ke2wY6lrBdJ3BjpGNkJl3gD2zenPv82/zeLMuTNpygPMuiSiJ5lg3D012aJBoiwdDwNoVwldo4Mz14C8RR3aQgCeAv9SgPN1DeWExQY9P+b9kxpNPQAZDpYeivFISEgpISS4hLdVDQkIlB455+G5rPgsj0pi/JoW1kQkcPFdGUnY+FZJ06TIIFNs4ecjLwhmn+WryCdbsd5FvD1gBvvBqe7ffoNobwOV145fdCiTJNDxby4AI2E0qc32UZ5bjLvHgk8TOKlO1pTLDi6PMoTQ2vykRLs0DyzVxfaBz5SjT5e6jU1dEdIRU5NZ0E0jcyLbxXXimcWf+/FxHBk5ZQ1KpMiHUygGP4cfpc1Nc5aLE6VZLuJQHNRy9JpgLZhFmwQnWTOrNrU+8Q/POQzmcVIBaSGGJl/IDyp81k7AK0HgIpu0gfvYnvPlaV+657Wn+2PJLvtkYT67NZslx+Hq/AQ6XSbXbg0Rl1YSmQqoVYNrAc4HUfXN4t/3HPPbwS3SYsIrtuQGq/R5LcxJtSqLOYU0Ks0IFtcziOA7MG8orz7XiH/7uX6n3SGu+mreDgvJCvCpvsHb3BEterb7SoFeX1z9Bk6oFqVHvPMkdjXvzdu+5LN6XTLqoD8Esi8qPk7h9Is+9+QW3PNGeL2atItZu4g04a0DKFbOChUP68u7TDfn7Zl/Tc8ZBYosdarBKpWXgKZ9emLGiWcjcUQNSsmwgfyfJm4bQtdc4BVJdRy4Na1Iy3i8GKX/ROY7PH8+g5k/yh5ZD6DF5L/sSC5RDkGAa2M+Qe2IzMwd05teNP+XVT+dwODZDda5sa6E+7jiJ55N8ZAefd2jOb59qT+9xq0gqzMFu+Ah4BURN5bRWM1y47iIEkg1NoACq0knavISRHV6mfofhfDBjFwcSMinwSmTNCtm7g6JWXwpSWRhZe9k2uQf1n2rDsy27M33nES6ojGDd2eK/EpKkTMmbki1XfCrLXGWay7k+SamwKiaObTmuFzyLk94VkKU3lgNa8EppYtUmhQVuBVIxp4pYtzmP5RHpLFmfSeRRFxfyghQ7ZWsPK41D7hsorSThpJ9l8+LoN+k4U1ZncSw2ndT8SirKnHhcwicrqKLC17JTRTj5Vgu/5Gup+smyHuGPaFiijIuWKu2QpT4Sh7kOkNKDo+6AuN6/LwtS/iqCqTs4PO9zmrXqxb2PtKZd77GsiDxLbGICGTk5FNvKcQW8ahKSuVjNS9JTIVnI7QNvJrjTcaVHsWxcDwVSzToNYufpFIokCOEW0z6IT4QrfL0AlQpohS4GqT/f35RX+s7mu1gn9kAgLMfWTiHiyJZny1ZA8gnKliiXgFT24UV07tSbhxq+yBujFrEpw4XDU/0DIOUkZEsia/dSRvQfT6e23Wn15TTm702iotr2o0BK74LwvWTOrOxMVXEdsdAmhwiQRFHwFHJ0x3K+7fQCfRrdQcdhK9hwxk6+N6TQ3jArCBhlpO6fS5837uO+BxoxduxcInOrSAyG1MwjkRxvzFrWDmjLu41fokfLVgyISOGMQ+xeVOLapXsX6aBMUO4AACAASURBVG1IZLYVEie+vSyHjE3Dmd3jcR5/uTOfD5vDkTSPyikxlBbhqVlaYhaeZvv8oQxo/Txft3yW7gtOsTUzSIWYZtJjlTHknlzO3IFteOfp39Hkk7lsivWr3yRHRGkkMvirTpB4dB4D279Cm4f+QM9vIjhTZFBpGjhq1kRJHom1v5O1Rkp2ZrCAgep8Dm1ezJj2L9O/+ZN0nbmLdSkBCoMhSuWc8J5NwgchvaMCwUyKcg6zZUI3Oj72v3i8WXdWbjvLBXeIPMNa6iKDR2cFy8DToXYZmBLaF9GUGaruoNSDVtdTSvkooDJR2kt2hpuoA/msXBXD3OUJbNhZzMHjZaRmBSmymVS5JTfLEnwxGCWPxlPtJTsjh+2b45gwdi0Dxpxk+qJslm1xsfOwj9ikABk5QWzVskbR0khEK9FZ0CJ3FuAGxQBVmqIy1UTbUkPM2kOrbjutdlm5OHrxt26r3pNLA6+OOOklTHqFf23Y/Ie1K32daOsK80NuXJWFJO5dzOier/HC3bcoatnyLQYNHMHsRSvZuvsQJ7Nc5LtDSkZFe9Z2g0qZkVxEXxZFGYdZNeZD2jz0a5p3/Jq9J3MpMlCk9k2Tfcb0hBDepUBymMoLMjg751MmvNmAJ5v1ov+YNezJClJogN8IKaqRL1PAXeQrvDIizHvDdBA0Ksk/upgh7z7KQ/e/wMCvxhGR4iDWH8ItuV3CRHG0SzpSOKteLBtxvvsr8shJOMXxmLPEJSRRWOFV+XSqoUqmxVLQk6pV6j6qW4qcapCaMXP6xbsgXCtITXzvRb5qdi9dx0awKbbqeyCVcXABX7d/mAcfbsLIUbO+B1L+s9/x3eB2dH6lGZ+2fYvB69MUSMlsbIWjZcqsbczfEkjJINcb0OnB/5NByp9eA1LtHv4NT7zWowak8q8AUtLpAkKq89UmZzKAawdfXf+MCJsGKPnbWeUjN6eYszEF7N4Zx+o1Z1i1+jTrdxSxP9qrQEaA5nRCCXHJFWTmubBVWZOMAJUIpavKTfL5ajZ/d4ax0xIZN/0C4xdkMXVZAfNXpbBhVxlnLpRRaDNVPl1dkBKAEqCSnDcrv8aqt2hdMkkJqBjqt9r2WG27PEjpyfZGg5SAnQp8ickVqMKTeZgj6yYy6MNOvPPiEzz3XFNee7UNLdq+S+eP+tB/ymoiDiSSUOKnRBJhZbwrdslKgR8GKZUGEN7m52og9XzLvgwcF0FkRhCRDwEpVU89CV4FpAqOLWFwx0d48L7nGPT1N6xLrSJOknevAFJ6Mb0oD5IfKOAr7dKT7V8EpGTQqYQxdz7RO5Yx+d0mDHilIZ3HbGL9WTd53pDSSjCLwSgk7+BUhrS/h7seeY1BY+azM9ejNCkBIRFG/7n1rB/ang9bvM4XHToybFOWAin5TfIr9GJGrTlJ5rUAlR5ksobNVpZNxqahzOr+KE80/Ygvhi7hUJrHst/DuzTqzjQKTxM5fyiDWj9P/0s0KZXNe1VNSvwlQag6ReLR+Qxo35TWD/2ej8av4nSxocxU0ciUwqJASi8Otna1lEGiPq5cDm1e+CM0qTzKCmLYOeUjpUk90awrSzYc44zTJCMoA9oanHobGPluLZWwlsno30UjFp6KZqXNFim1qSV/+3weSnLKOLovmmWrE1gRcYHIqHTOXXCSl+skOamYXXuLWbHqPBNmn2f6ohTW7faSkBqgwGGqhFoRUF8wiLuqmoKcPM6eyWDP7hOsiTjHwsVHmTghhkkTTzN/bQmn4vwUuENUhDVtC6ws07VWo9LfLQ2xdq+rWpnQsiGllh/dRkvPkw4S4aq7zk8HKCz+iVtBqO69Lve3XjIl3apuqSKqMvIlYTiP88e2sWnpJKaMHcRXvbrQqfUzvPDwH3jokcf55NM+zN6XyZkK0b5Rqw1EW5Q+wpdKacZ+Vo3pQZsHf03TdwcTeapIacsCNjKRyCSi5VprwpdqUo3f6MfQCevZnRlU19b4ZyXvTnZ0DW+AqDXIGrA1ZFVHOTmH5tD/nfto2PBlhg+fxZZMJwl1+kcv5taljA3pE53rpvkt9xUfmNaQLZmsM3nWmTTr8lk0Kb0z5zVrUpeC1IT2jej7Qn3eHryGtaec3wOp7H0T+eqNO7n9wVcY+s3i74PUmXVKk9IgNWJLjgIp0aKEtJDdaJAa3OZFBrZ67iJz77pAyhnDhWMLvgdScg8FUmEsqt3B4AaBlFFAZVkce2f15r0n/p1Hm77PgohDHLeZpF0GpEQYLGDSg9gahJqfendPPYg1SMlxv9+Lo6SK2BPxbN9dyP7DlaTlBHFJWoDd5MzpDFauTmD+whimLUxWIDVjRT4b93k5m+lWQOWXrZDDGpUAZ8AboqTYw/lEP4eOFLNqRa4CqhFT41mzw01cvoFdVv6EJ7Ga7G3ls9EJwbUbGl4/SMncbgHUjQYpZZIbsgNDOA1EllqZNkJV2eQkn+HAzu9YOGUQ3d5pzMOPPsELjZrQZfx3bDhfTaVhTcq6v/CnXRakBKAKDImAWltMXwtIDZu4gb3ZQSRL43pBKn3fdL54424eergZ48YuZGtWdY27RvpIg5MuBaQCskjaV03IU0UgIGakmObWbrCXglRdQLrc3zcEpKZ2bEq3hv/BM+2HMHNjLDku04pQ+XJxiJN6xRh6NPoTtz7dieGzdnDWZpJryGZaBh6JCpyOYMOwDsof9VWn9xm5NZezVaYSUtGkdMW1mafVfBEEyQsStbKqPI+kDaOZ/MGTPN20K18Nm8+xzCpkYXzAcOMLWBm5ghtGQSzb549mYJum9G/1Eh8vPqt8UhI1USBlP0XOiWXMGdBa+aSafjKbjWct/5aAjzgoRTPAGceFY8sZ8l4LWj34e3qMWEBMbkBpkeJTku1NZCyIySMUnrhrdhmkOpNDm+ZepElFJPkv9kmp5ETLCa2vl6RQX3Uup1eP5JOX/kjjF1syf+5K9hYaJAZEa7P2N5e1e0KafzUgFE5p0CClf7+01Of7PNU47OWUlrmodATUPvJBX4Dc9Ep2bDrCzJWZbD3k40JaBfHJJWzdkciylUfZsN9NbrGBIXq+tF/yd8XBLT6UQBCPx0l5eQkXosvYvOQYY6bGsmBlPtHJLkrcyvukrtOaoI5gaXNNl1drhzxe1SAguXV5eEvyceZlUWgP4BQndHj9micoGrpoTtepSYVXM4hWI8BhAaBByOtUA1WOeIOoZNeqKh/2C7vYv2I0fdq/SuunGtCk7xKWnnAi6+FF/iSJVsxX/NnKJ7ViRGfefvTfaNquH9uPZpEVtEBK9i4TuZL2SXRU+k+0KQwPZfnpnJndS/mkXnrzK4ZP2qhASsbdpSBVCxqWS0XWHIrfjmAB/soUTq8bQ8+Xb+M/H+/A2Hm7OW0LqvEr4Ci+LN0PGqSkDr6Al5CrEKM0DUdhMc7iUgrdITX5aOWjbi7fpbJX9/sNA6k3b/tH/vGJd+kzYSMnspzWYPfmkBizjSUDO9K24f+k4SsfM2/DGVI8loNXg5T/zDpl7nV/vSX93u3E8M3Z1wRSYdFTC3591WVk7pjIrI9f4PlmH9J/xEJOF/osc1GFpK21SdKpRlG8AqlBb7zMgNZN+GjhabZkWI5zFf53nCbv1IoakGrccyYbzrhVmwSkRDMQMwDXeQVSAzs046U7/pl2fSdxMNmhgFHWz6lP2KkpHao/4v9RnzBIjXv3VQa2fJoPZ+9hY9oljvPLgpQNw1tE6vapDHzjfhq98DrfjJ3BuqRq4n03BqSUo1026VemiwyzsFooQ9AI4Xa6SIzNY92q3cxfl8+ZpIACArcvxMEjecyet0cdP58WxKe0rgD2kgqqyivx+awXVwgPZDBmnnGybflJRkw4rZbJCEiVekQ0LaDSoPFTQEpa4K/MJ+XsYTYunsfq2dNYuzWKlFybWmArEbbaDQuvD6Tk3kLa5yiTp8dVTXluBjnJ8WTkFmFz1i7qxZHAyU1T+axdM5o99Eee+XguC47aa0BK+9gI5GAvOEXEuO60uv9feaJ5T9buOk9ital8S8I/6RUhCThon6MsgK8ozKoBqaZtv2bklC3sy7F8UlcDKQEo0V4J5GMrOMPuOX3p1uhW7m/ag9lrT5AcHr8CUFcCKY/PhS0thmNblrF09hzWLFzMgdgMir3iywr7muskHNcFpUv/vkaQsjpNI6YIixJZTz5Hdyzjm7ZP0+pP/8ivbn+aVzr2Zd76PRxKyOXssc3MnzqI9s1e5sWG9/P6Z7OIOFGutCyJkmkzTqJ7EQPfUo7z3m+9zZAN6cTYTSU8l9OkpFtk8PjcLqodlfjtpRRnJHN85WjGdHmBJ5u8wydffcOec5nkuUOUV7mxu/2KOSo0XhjDpvlD+KLlE3ze4jG6zTvBhlRLA1IgVXVGRfdm929F28d/y/MfTuO7mOoaX5N2cOJNJjd+C5N6t+bVe/+Fxm/2YN7avZzJLiPTEaTUaWJzh9QsKiClndHKKSpDujqdQ5tmM+KtRnzZ7DG6zIj8fnTvciAVcmIG7dhOrGLmpy/T8dXXGfbp50zfX6DMZK3+6/V7WtPQmpHM+GrWr0kS1Wag9slYM7L2eegdEWTmE6eoqEQuZyWJcYWsXxvF4pWxRJ/2UF5hUlBkEHnQxrzlcSzfmUd8dhCHzSQ9tYKYGDvHj5eRlhUkr9CgvMwgMzvI7r0OZs09x8hpp4mIdHA+z489jOpSZy132oGu21FzXDnPdRuktORVzCbhtciQDIzKzJOsnTWMbi8/x5uP3cu7n09ix4lcqkxTnSN5YbL0SA+Sa/VJ6WivmPUCVgSrFUgk7V1G1PJvWBuxhgMHo4hPLSaryEXcsd1MHzuAN15uTosXm9JjzHfsjHPV+KR0+zBLcToy2bdgOJ2evoWHHn+JEWOns+NsDnGlQfLLPZRUBZUWJSAlo1LqLv0k0b3Tsz7hm1b1ebFlX4ZNWK+iexL91SClNG3Z80xH86T+QkoblMTEVNLPbmPtqG58+vJdPPvBJBZHFVJmoiZiGUtCtf1gyZWApNfrIHPXXCZ1b8zLjz5Dx1fbMGrlXs5XmqqdMtkr1bqOb1nz/dLyhoDUxHbP07Xhv/G/Gr7CIy+/R4sufXiv7wh6vt+MZs/fzcuPPUK/bh8weUM8J/ODSiOpC1LO6JWs/KoNHRs15qNWrRm4LpVTNgukRLj0DKHNPZGDyko7B/btZeG8uUweOYQR/T6j/5sP82r9f6Lerxtw92PN6NBnBF9+O5+xk6axbvMOMkurFPD58k+yfs5Aer/2CJ+83JCus6NZn2KBlPZJZR9fyvR+LWj1yG949oMprDvlrAFX6WRLGNOpzD7A9ln9+aTF/fzpMVkH2J33vhhGn9FT+Gb6EtZs2U9uUZkCqiuBlKQf9HrxPjpM3MyKeNfVzb1QFUbARiBxK7unf0qPt9rzcbtODFh1hpMVYupZ5uFPASkRFA1msjJAdkRQa7rUm2UC+L0ucrOc7I08zbylp1m2NoGtOy/w3eZYlq1LYfWmDPac8ZNZZiiQunC+kM2bE1iy5AizF59g0apzRGyIZ8mKE0ybGcOUaSdZEJHH8Tg/WZLKoGZBMQ2tWV0U0drBoBMBLVDVg7pWuC8GKUmuFTkqSznK1MHdaXT7b7nnn37Fs29+RsS+CzgMQ4GUANSPAamAvFpKkjDDWk3I56AgK4kDK8Yz6+tOvPV2W9p3aEe3Twfz0efD6dmpNc2ff4hWTV5l6Bf9WbIni6QKQ+UvyTY9uj2ymsLtzCY5ciGjuzTlngef5dlGLXm1+wB6jJzF4LHTmLU4gvikFLWLgcCU8EAc56V5aZyc/hGjmt/O0816MXDsWnamB8i+FKRMCUJYzmytqcr4kk+gPJ7juxbxbbem9GvVkPdHfsemcx4FUJKuc0WQIojbbefMmrH0anIbv/m7/8YTd97PZ9PWcrbcChD8DCClZylLKGo0CXcBh7cvY0Ln1+j7yoM836EfzT8cQeMWLbjv8cdpcNetPPTAXbToNpAZEVFqzZ34fXToV9uw+TGRLBzZiw/eeYu+3buxcE8cFxy1IKVndO0glW0p0tPOM3/iaNo3b8SDd9XngTtu584/3cptt/yB3//f/+CWP/ye+rf9iQZ33s59jz/Pl0NGs+dcmgr1OsuSWL9iMv3eb8MXnVoxeN5O9iU5KfdIqj8EKlNJO7eb+WM+54OWT9Lli0nsOZlbs21LDQiEvGrGyDi+hSXf9KF10+d49O5buaV+fW5rcA8PN+nMp0PmEBWbQYVKltPb9UqCpYHpLOHwzvX07/IGn7RtwtCZKzmYmK92i1CdKM7HoK9m5tMzoChhyvVQnkhs1BomfvoO3Zo8wKfDFnE63asimmqQyx5DsjXOFaImP/a4pUeHcDgdJCSeZ8P6M8yYto0R4/by7dQjzFtznp1H7KSXGFQFQ1RXBUlLyWPnzrPMm7eVEeP2M3jkLgaOOsHQb04zavIRlq/PJibWRoksufBLNFIGjjf89hotf9dZCuiIczkkyawG9oQNzB38Jo/eVp97/+M/ea3XNDadsSuAUlHk8G6qtXyp1Sxrj12uDto8tBzDIX81zsJsTmybz7TBXXn9pT/z5/v+wN13/Ce33/Jv3Hb3/Tz+bCN6fjmM9TsPkZyfS6VaKWBFLa33MFqRRfF9VmXHs335DD7u2JoXHrqDu+6+m9vvvIP6jzXjra5fsnr3WXIcZo1/ShYYlxdmsG/hMIa/34h3unzJpNlrOZFZSZm8v68mmmfl3tWMx3D71d77mHiyD7F6Um/atXiHj9/rych1pzlaJH7kcEArnOirQU4HOCTr3GdP4fSyQXze5I/8w7/cywvPv8OYVQdJkpUC4SU1SkO/hlfMXaMmpTvm8iA19t2m9H/9z7w/YAZDZm9m0pw5DB47lpHDBzDx21Es3n6SM7luNXhkpqhhSngfarM0idRDG9ixbi37t25mX4qdHJ/1lgqZAS8FKcm9KCnO5mjkJhZMGsPw/l8zcuAARg8fxthRIxg9eiQjRw5n2OBBDBnYn/4jxrNy/XZissspFsetJ5eUuH0c/G6Joh2x5aQ6zFpb2ZWNsziexEMb2bl8Mqt2nCUxP6jW4QmIyYwppDbJl7Vi5RfIPLGVjSsXMX3ccL4YOIh+gwYzcPwKlm48QWyuXam4coksnA17MMBrJycxhmOblnEgYgGRZ9JJtZuKTwJSAlCXAynFP1HlXFkUJx0kYsLXfPDS/bTpNpLNB9Mp9IWswIXk6/wMICX+Km1aVFZVkhDv5MD+TDbvKGL95jyOnPOTWWABlPBLHOf2Cg9paU4OHU5ha2QZm7YXs367h82RXvYd8xGfFMAu+5VLRrme2cOv1/phgNCyeZkyDFLWBmwBCmNWMu6TRgqk2jRqyuAFB4iWSKVOdblBIEXAhemswJ52mJidi1k651umjh3AyKFfM3TgF4wYO4Hpcxaw+8hZUvIqFEC5womYoi2qT3jNppicIVcx9oxzHNq+jrnfDqf/gAH0+/pr+g6dypQFG4iKLVDrYUUmVYzCqCbosVF+ejNnNkxjzaZDHInJqAloXQ2k1BpTAhSc2cT4Pq1o2agFYwaMJiLWQXIdn5JK8r0opcACWdnZ011+gUOz+9D96f/Nvfe8xOd9xrE6Opt0cX/8PCClZxSrlLwQ5Qd253No+zK+7fQS/V97kO5TtrHyVAVJZW5SbT5kcbCjLJdihw/Z900EVkibEVqTMoMuXM4KqisrcNrLKfNY6rl6iDwo/JZf7VtR20kEXYRcNioLs6ksLcFRJpvmlVFpq6DCVqH23pbvtvJStbFaZZULW8DSzkKGA5+7jICtUJEsABYwlA5WkaBAJYbPRsBdhquygGKx+5V6ay2krFWLZUsTayGvhFpdVVWUl5ZSVl5EeUUxZRVVavN8W1AycxWqhUFKBFGY6MH02Ag6SjGqytTrg6QewiNRpbXaX6tBhacuYYmKddvxVOVy7LuZ9Gv/Iu906MmSFZtV1nuJFVhULNT30YNda6T6+/WWyqkuJmA4a122lHW63NirAtgcftxeE7/apdNaQyeVMGUDvkAQZ1U11U6/ShB1VgWodgZxukN4vLKrp2V2aPNem3fXWz99vh6MhKrweUuIj5zBp23uo8FdT/HJRwPYcDyP7GrxQ1mk5VJ8U0Jao9H3u1KpNQItz9bOrR61e63HWUa1vQRbSR4VZcXYyuWlHXbK7ZU4vPJmIdFKrMxtmXdUQEaJiuUfUt8lz08Bj4OywmyKS4ooKS0mt6SKkkofpU550YaYw1Y+nOwDJmQ6CjArcih3eHC4g3V8qpaWpvlTN89LYWTQhdT71LZ5DO/RnOYtezB/0TbiK4KUSMJqeKWHBiktnzWaVDCH3JQoFg3qwuv3/g+eataduSsPcrbIRaGKPusX0l7bC1yvUZP6YZAa1/4Fvmr2AJ/MiGRTokc51pRvRw1gy1aXgSertdUWwmHHbW2nykJhMU2sPaZkrzqJjolgWySLemWXyfAyGJWcKWuMhEQz0R9rFwAZREJWNqVawKOWasg9BSyMgOztVEXIK7soeGrUVw1S8oosRfImGlniYFpbrMo6MpkFvgdSsruB6FYKiKQuIm7WF1mpLs9VPjhJglXZ3n4rxCyLo2XzwKBbkQYoCxCvDaRkE7+CmB0sG/sZvT4bwoQpC9kRW0S2bE4nu2EKHF7iWP6pICUgosnSqCz+650fxLIVkJLnSM6MaH41vKnhke6zsD9ECb/1KvFaMNBydxkt6RpMWD0IJWXDVp7BoVUjeK/xrTz1eDNmTlvGmQJDpYvccJAyBKCspSLWVr0iiyKrltdK+zRF3mQykqUlQgJIsnheTUDaia2ibCKP1QJhyt8kPJeP1pxkbMnfsve+yrESN4E8yyuvp7I2QRQQkzEpGro8xyLL9LsUpILeSvKykohaPYHxfd6iX/8p7D94gSzZ7/4aQMpwpRJ/ciMTerbitbv/mfc++YY9x3LI8YbU+lj9YledmV7b35fv5x8FUiKAopLjzmfvpoUMe+t5Pnvpft4fv4WNiXVC6ApMZKvg2sEp4VUNNrWDR2YBGdsBRdohp83C2vOsRujvOjqor9ONrb2/FW2Qhb5CunP0Pul6YzhfSFZx124qr8FT318LsTYb5D4CVHqg6ufrmVg/X5c1M7NcowDacvzqtVL6ej2oRC5lRhPhE9LHhXdK+NQ2s1IH8Vd5CZSnE3d4C6uXLmH96lXsiysgW3aaUPttW2BhAdPF+0lrPmq+/dhSaxw6Y1mDoA50aL7o5+l2f19IdRRZC+u1gtTlz9P9bXqLsRUns2vdHPp1f4Oefcew80AspS7LpaDrr8/X/aXrfTW+6HYpQFImathxr9bD1Tr8tWaoz9f31c+tW+qJUI7pV93X1ucSH1j4nY5KnuX9imHN8HLtkoXjeu2ilFInLV86KiqmYnZaHIe3ryNi3hTW7zpFRkmASiNAlVwf3qmhpj0ir8otY60L9TjSORO9hUnDvqTbW68xafF2EgusKKtSEsLRV/22bM2HK5U/CqQ8PglRy95WuezfvIhBrZ+ixzN30Hb4GladcdZGp8IgpTulVoitwaKP125D8ksHKdnypBbMtFmiQUYLkQYnXV4q9LrderDq67WwKEvuCiAlPNQLQwWghPAWY9qzyE1PJ+V8PHGFforlLSsyu8osG35Fuq6PFgZdD/39x5Z6MNT2r/VK9l8KSBEos94ld/4QxyJXEhWdTH655TOTQaPrr0Hi0v66Gl80H28kSOm6XDdIGZIPaJmvV2qXBhddarnTIGX6KrEVZ1GaFk9eYgxZZYaygiRVQ+hqICUvvC0viOXCiSjlR4tJd1Dhs1wqYlXo5/ysICWgorR2byGxR7awaMBHTProbQbNi2R3opOKQEiplWoQhyy7W2Z1zRQtvLrzteaiB7k2u7TNq4VAn3/pd63x6N/1YNT3052l1VrDrEZIr46v7SRrRv7+DG8d1+dpAdLPu7T++jz9u+5UXR9d6noiL5YIelRCnuS7KCBUG9lbyXL6er1tibUtgZhc4vORjHvxWXjUK4YMv09tsicamGhd1rXWpKCfp+t148qLNRn9HM0nDbpXKvUkVVtqTUq/W05/v9byYo1MBThMN35fJa7qcrW5my8c5fIGdN1rS11vPdivxic9yWg51JOCPl57H+sZWn71+fp5VyrVRnZmtbIGxCLQ40jz63uTndo/TPNAJgyZqGrNPH29ljMtvwIaag/9sBvF9AcJev14JWlTZeWL5imOb3F7WG/qlrZpi0Ivr1IvHQnvtR702qkOhNdHil9XEuJr8vN0HX+4X3+UJqWZI5vNl2WdJvfAJnKiNrIv2U1ChVEDUuKPENKgoyt3E6QsM1QP5h8LUnoLHcv/4a0Jm4pPS00KIT++gLvGvNbPu9qgu/7f9VYq1tIM/RwZdMosDps9fzWQEr9feEW++HVEw5RMaZlMfGqtY92BX+sWqAWXHx5EGow06PzNg5S8rkrlw1l+QwEpj6wyCEng6eogJZqY9RIGSfy1tjUWF44sDaqboV6rUf0wf68RpC69ie7US4//8Hc9g1xtEGghv9bzr37e5et7pev0cV1qcK2t9+Xv9/3zfpgftfe7vvNq63VtM9GPfc7VrtMaYW27NV8uLX+4ffo+ul2Xllerx/X+ruVLrtORyuu9xy/jfM1nLQe6/GF+X63uohHpVR3SF1c7/1p+166Razn30nNugtRlOuH7g0QLg+6wS79f7bj+/caUun7XOhNd2uk36ruAi+Sw/S2D1I3ixV/nPloONTjp8qfJmZYvXf512lbbhh8JUrU3+Gs34Obz/5p9oQeJ+BkuR9bvOop0pb7Sg+FK5ZWuu3n8r9n3f7ln3wSpy2hSN4X/WgXw2kCqVtO6/H2vBE76+M3+uDzf/qvw5QdBKjsnS3nOtPdel/9VmHOznVcbHNcGUnr3As3PhNbUDwAAAXtJREFUS/1AGoyuVOrrbpZX64//P3+X/c09XrfCoukzpnFH/dvV3/Xq1atHYVGB5d6/+f9NDtzkwE0O/BU5INqUfObMm0ODexuovxVI7YzcodYJ5eblUJdycrO5STd5kJWbh1BGTi6ZuXlkh6nucfktNTtPUUZOPkL6d7lGSMtSbm42lyP9+83yv6bMaewRpWnQkEE88eTjtSAl2tRNusmDmzJwUwZ+STLw2OOPqtSReokXEpBXWt2I2Ut8Wzfpb48HmTk5XI7S83K5kJnBgVOn2BYVxcbIXeyIimLUN+OVVjV9zlyGjR7Dqk1biDx4mE1797PzyFG2RZ9QFBl9kl3HT5GYlk56Ti65+flk5+b+oKz9FPm5ETJ88x5/HS1O97tgkaa0jDRLk1L/3/zvJgeuwAFZE1hQWUlaQSFJ2dmk5uWxdNVqbFVORbv2R7Fh5y5iU9NJyM4lPjOb2LwC4guKuFBQTGpJuVpXeJlNEa7wxJuHb3JAc8CSmv8H7FjOZTcOjy8AAAAASUVORK5CYII=;" vertex="1" parent="1">
          <mxGeometry x="110" y="210" width="297" height="46" as="geometry" />
        </mxCell>
        <mxCell id="gIB-E6HbOeR175P0wQPo-5" style="edgeStyle=orthogonalEdgeStyle;shape=flexArrow;rounded=0;orthogonalLoop=1;jettySize=auto;html=1;strokeColor=#314354;fillColor=#000000;" edge="1" parent="1" source="gIB-E6HbOeR175P0wQPo-3">
          <mxGeometry relative="1" as="geometry">
            <mxPoint x="260" y="460" as="targetPoint" />
          </mxGeometry>
        </mxCell>
        <mxCell id="gIB-E6HbOeR175P0wQPo-3" value="Write(STDOUT)" style="rounded=0;whiteSpace=wrap;html=1;" vertex="1" parent="1">
          <mxGeometry x="200" y="320" width="120" height="40" as="geometry" />
        </mxCell>
        <mxCell id="gIB-E6HbOeR175P0wQPo-4" value="" style="endArrow=none;html=1;shape=link;" edge="1" parent="1">
          <mxGeometry width="50" height="50" relative="1" as="geometry">
            <mxPoint x="175" y="410" as="sourcePoint" />
            <mxPoint x="345" y="410" as="targetPoint" />
          </mxGeometry>
        </mxCell>
        <mxCell id="gIB-E6HbOeR175P0wQPo-7" style="edgeStyle=orthogonalEdgeStyle;shape=flexArrow;rounded=0;orthogonalLoop=1;jettySize=auto;html=1;fillColor=#000000;entryX=0.5;entryY=0;entryDx=0;entryDy=0;" edge="1" parent="1" source="gIB-E6HbOeR175P0wQPo-6" target="gIB-E6HbOeR175P0wQPo-8">
          <mxGeometry relative="1" as="geometry">
            <mxPoint x="260" y="590" as="targetPoint" />
          </mxGeometry>
        </mxCell>
        <mxCell id="gIB-E6HbOeR175P0wQPo-6" value="Trap Handler" style="rounded=0;whiteSpace=wrap;html=1;fillColor=#f8cecc;strokeColor=#b85450;" vertex="1" parent="1">
          <mxGeometry x="200" y="460" width="120" height="60" as="geometry" />
        </mxCell>
        <mxCell id="gIB-E6HbOeR175P0wQPo-11" style="edgeStyle=orthogonalEdgeStyle;shape=flexArrow;rounded=0;orthogonalLoop=1;jettySize=auto;html=1;entryX=1;entryY=0.5;entryDx=0;entryDy=0;fillColor=#dae8fc;strokeColor=#6c8ebf;" edge="1" parent="1" source="gIB-E6HbOeR175P0wQPo-8" target="gIB-E6HbOeR175P0wQPo-3">
          <mxGeometry relative="1" as="geometry">
            <Array as="points">
              <mxPoint x="420" y="630" />
              <mxPoint x="420" y="340" />
            </Array>
          </mxGeometry>
        </mxCell>
        <mxCell id="gIB-E6HbOeR175P0wQPo-8" value="&lt;font style=&quot;font-size: 14px&quot;&gt;Implemetation of write system call&lt;/font&gt;" style="rounded=0;whiteSpace=wrap;html=1;fillColor=#f8cecc;strokeColor=#b85450;" vertex="1" parent="1">
          <mxGeometry x="200" y="600" width="120" height="60" as="geometry" />
        </mxCell>
        <mxCell id="gIB-E6HbOeR175P0wQPo-9" value="Kernel Space&lt;br&gt;" style="text;html=1;align=center;verticalAlign=middle;resizable=0;points=[];autosize=1;" vertex="1" parent="1">
          <mxGeometry x="60" y="504" width="90" height="20" as="geometry" />
        </mxCell>
        <mxCell id="gIB-E6HbOeR175P0wQPo-10" value="User Space" style="text;html=1;align=center;verticalAlign=middle;resizable=0;points=[];autosize=1;" vertex="1" parent="1">
          <mxGeometry x="63" y="349" width="80" height="20" as="geometry" />
        </mxCell>
        <mxCell id="gIB-E6HbOeR175P0wQPo-12" value="Trap" style="text;html=1;align=center;verticalAlign=middle;resizable=0;points=[];autosize=1;" vertex="1" parent="1">
          <mxGeometry x="291" y="383" width="40" height="20" as="geometry" />
        </mxCell>
        <mxCell id="gIB-E6HbOeR175P0wQPo-13" value="lib invacation" style="text;html=1;align=center;verticalAlign=middle;resizable=0;points=[];autosize=1;" vertex="1" parent="1">
          <mxGeometry x="280" y="280" width="80" height="20" as="geometry" />
        </mxCell>
      </root>
    </mxGraphModel>
  </diagram>
</mxfile>
